<svg width="720" height="520" viewBox="0 0 720 520" fill="none" xmlns="http://www.w3.org/2000/svg">
  <rect width="720" height="520" rx="40" fill="url(#bg)"/>
  <circle cx="570" cy="112" r="54" fill="#9ED9FF" opacity="0.9"/>
  <circle cx="628" cy="164" r="26" fill="#D8F0FF"/>
  <circle cx="102" cy="96" r="18" fill="#D8F0FF"/>
  <circle cx="142" cy="136" r="10" fill="#FFFFFF"/>
  <rect x="180" y="188" width="360" height="214" rx="28" fill="#F7FBFF"/>
  <rect x="200" y="208" width="320" height="148" rx="22" fill="#DFF1FF"/>
  <rect x="220" y="228" width="138" height="96" rx="18" fill="#8EC9FF"/>
  <rect x="374" y="228" width="126" height="22" rx="11" fill="#4F9EFF"/>
  <rect x="374" y="264" width="88" height="18" rx="9" fill="#7AB7FF"/>
  <rect x="374" y="294" width="72" height="18" rx="9" fill="#B6DCFF"/>
  <rect x="306" y="404" width="106" height="18" rx="9" fill="#225FCB"/>
  <rect x="332" y="422" width="54" height="16" rx="8" fill="#194A9E"/>
  <path d="M230 178C230 128.294 270.294 88 320 88H352C401.706 88 442 128.294 442 178V184H230V178Z" fill="#173C86"/>
  <circle cx="292" cy="146" r="38" fill="#FFD6B6"/>
  <path d="M256 142C256 120 273.954 102 296 102H304C326.046 102 344 120 344 142V156H256V142Z" fill="#0F2F6B"/>
  <circle cx="278" cy="145" r="5" fill="#173C86"/>
  <circle cx="308" cy="145" r="5" fill="#173C86"/>
  <path d="M283 164C289 170 297 170 303 164" stroke="#173C86" stroke-width="4" stroke-linecap="round"/>
  <rect x="268" y="184" width="46" height="58" rx="18" fill="#FFD6B6"/>
  <rect x="232" y="196" width="122" height="92" rx="34" fill="#4B9BFF"/>
  <rect x="210" y="280" width="72" height="116" rx="28" fill="#2E7DE9"/>
  <rect x="304" y="280" width="72" height="116" rx="28" fill="#2E7DE9"/>
  <path d="M504 134L534 144V182C534 212 514 236 504 242C494 236 474 212 474 182V144L504 134Z" fill="#0E52B1"/>
  <path d="M504 154L517 168L501 198L488 184" stroke="#FFFFFF" stroke-width="10" stroke-linecap="round" stroke-linejoin="round"/>
  <rect x="470" y="266" width="122" height="90" rx="24" fill="#225FCB"/>
  <rect x="486" y="282" width="90" height="46" rx="14" fill="#9ED9FF"/>
  <rect x="512" y="330" width="38" height="10" rx="5" fill="#173C86"/>
  <defs>
    <linearGradient id="bg" x1="72" y1="34" x2="656" y2="476" gradientUnits="userSpaceOnUse">
      <stop stop-color="#EAF6FF"/>
      <stop offset="1" stop-color="#BDE2FF"/>
    </linearGradient>
  </defs>
</svg>
